<mxfile host="Electron" modified="2024-05-04T13:58:26.618Z" agent="Mozilla/5.0 (Windows NT 10.0; Win64; x64) AppleWebKit/537.36 (KHTML, like Gecko) draw.io/24.2.5 Chrome/120.0.6099.109 Electron/28.1.0 Safari/537.36" etag="p7f0A9KLTIjdrs8glOoi" version="24.2.5" type="device">
  <diagram name="Page-1" id="nIGAM7hPa9xwq0gXfPnU">
    <mxGraphModel dx="1646" dy="1756" grid="1" gridSize="10" guides="1" tooltips="1" connect="1" arrows="1" fold="1" page="1" pageScale="1" pageWidth="850" pageHeight="1100" math="0" shadow="0">
      <root>
        <mxCell id="0" />
        <mxCell id="1" parent="0" />
        <mxCell id="gF3WEvG9zK7zUr22VQWD-1" value="Поле исходного текста&lt;div&gt;&lt;br&gt;&lt;div&gt;- свой текст, дневная запись, история&lt;/div&gt;&lt;div&gt;- рассказ, который нужно перевести&lt;/div&gt;&lt;/div&gt;" style="rounded=0;whiteSpace=wrap;html=1;fontSize=18;" parent="1" vertex="1">
          <mxGeometry x="80" y="80" width="210" height="150" as="geometry" />
        </mxCell>
        <mxCell id="EsE_fpgFQYZ-JuI0FpKj-1" value="Нода &quot;Работа над переводом&quot;" style="text;html=1;align=left;verticalAlign=top;whiteSpace=wrap;rounded=0;" vertex="1" parent="1">
          <mxGeometry x="80" y="-10" width="340" height="30" as="geometry" />
        </mxCell>
        <mxCell id="EsE_fpgFQYZ-JuI0FpKj-2" value="Набор пар&lt;div&gt;выражение русское - выражение англ&lt;/div&gt;&lt;div&gt;Это могут быть слова, словосочетания&lt;/div&gt;&lt;div&gt;Куски предложений из которых потом буду строить предложения&lt;/div&gt;" style="rounded=0;whiteSpace=wrap;html=1;fontSize=18;" vertex="1" parent="1">
          <mxGeometry x="360" y="80" width="230" height="210" as="geometry" />
        </mxCell>
        <mxCell id="EsE_fpgFQYZ-JuI0FpKj-3" value="Флеш карты" style="rounded=0;whiteSpace=wrap;html=1;fontSize=18;" vertex="1" parent="1">
          <mxGeometry x="360" y="320" width="230" height="120" as="geometry" />
        </mxCell>
      </root>
    </mxGraphModel>
  </diagram>
</mxfile>
